<svg width="1280" height="720" xmlns="http://www.w3.org/2000/svg" xmlns:xlink="http://www.w3.org/1999/xlink" overflow="hidden"><defs><clipPath id="clip0"><path d="M0 0 1280 0 1280 720 0 720Z" fill-rule="evenodd" clip-rule="evenodd"/></clipPath></defs><g clip-path="url(#clip0)"><rect x="0" y="0" width="1280" height="720" fill="#FFFFFF"/><rect x="105.5" y="52.5001" width="153" height="189" stroke="#2F528F" stroke-width="3" stroke-miterlimit="8" fill="#DAE3F3"/><text font-family="Calibri,Calibri_MSFontService,sans-serif" font-style="italic" font-weight="400" font-size="19" transform="translate(114.327 131)">id_client<tspan font-style="normal" x="0" y="22">Nom</tspan><tspan font-style="normal" x="0" y="44">Prénom</tspan><tspan font-style="normal" x="0" y="67">genre</tspan><tspan font-style="normal" x="0" y="89">Adresse</tspan><tspan font-style="normal" font-size="21" x="36.9792" y="-51">CLIENT</tspan></text><path d="M106 92 258.873 92.0001" stroke="#2F528F" stroke-width="2" stroke-miterlimit="8" fill="none" fill-rule="evenodd"/><rect x="537.5" y="64.5001" width="152" height="166" stroke="#2F528F" stroke-width="3" stroke-miterlimit="8" fill="#DAE3F3"/><text font-family="Calibri,Calibri_MSFontService,sans-serif" font-style="italic" font-weight="400" font-size="19" transform="translate(546.12 131)">Num_commande<tspan font-style="normal" x="0" y="22">Date_commande</tspan><tspan font-style="normal" x="0" y="45">id_client </tspan><tspan fill="#FF0000" font-style="normal" x="69.4933" y="45">FK</tspan><tspan font-style="normal" x="0" y="67">prix</tspan><tspan font-style="normal" font-size="21" x="11.4058" y="-40">COMMANDE</tspan></text><path d="M537 104 689.873 104" stroke="#2F528F" stroke-width="2" stroke-miterlimit="8" fill="none" fill-rule="evenodd"/><rect x="1031.5" y="43.5001" width="153" height="208" stroke="#2F528F" stroke-width="3" stroke-miterlimit="8" fill="#DAE3F3"/><text font-family="Calibri,Calibri_MSFontService,sans-serif" font-style="italic" font-weight="400" font-size="19" transform="translate(1040.48 108)">id_produit<tspan font-style="normal" x="0" y="22">Marque</tspan><tspan font-style="normal" x="0" y="45">Type</tspan><tspan font-style="normal" x="0" y="67">Fournisseur</tspan><tspan font-style="normal" x="0" y="89">Prix_unitaire</tspan><tspan font-style="normal" x="0" y="112">informations</tspan><tspan font-style="normal" font-size="21" x="27.5825" y="-37">PRODUIT</tspan></text><path d="M1032 82 1184.87 82.0001" stroke="#2F528F" stroke-width="2" stroke-miterlimit="8" fill="none" fill-rule="evenodd"/><rect x="327.5" y="522.5" width="170" height="189" stroke="#2F528F" stroke-width="3" stroke-miterlimit="8" fill="#DAE3F3"/><text font-family="Calibri,Calibri_MSFontService,sans-serif" font-style="italic" font-weight="400" font-size="19" transform="translate(336.262 589)">id_facture<tspan font-style="normal" x="0" y="22">Id_client </tspan><tspan fill="#FF0000" font-style="normal" x="69.8267" y="22">FK</tspan><tspan font-style="normal" x="0" y="45">Id_commande </tspan><tspan fill="#FF0000" font-style="normal" x="113.18" y="45">FK</tspan><tspan font-style="normal" x="0" y="67">Prix_HT</tspan><tspan font-style="normal" x="0" y="89">Prix_TTC</tspan><tspan font-style="normal" font-size="21" x="36.5142" y="-39">FACTURE</tspan></text><path d="M328 557 497.96 557" stroke="#2F528F" stroke-width="2" stroke-miterlimit="8" fill="none" fill-rule="evenodd"/><path d="M335.5 122.834C335.5 116.022 341.022 110.5 347.834 110.5L447.167 110.5C453.978 110.5 459.5 116.022 459.5 122.834L459.5 172.167C459.5 178.978 453.978 184.5 447.167 184.5L347.834 184.5C341.022 184.5 335.5 178.978 335.5 172.167Z" stroke="#F4B183" stroke-width="3" stroke-miterlimit="8" fill="#F8CBAD" fill-rule="evenodd"/><text font-family="Calibri,Calibri_MSFontService,sans-serif" font-weight="400" font-size="24" transform="translate(368.026 155)">PASSE</text><path d="M258.5 147.5 336.3 147.669" stroke="#F4B183" stroke-width="3" stroke-miterlimit="8" fill="none" fill-rule="evenodd"/><path d="M459.5 147.5 537.3 147.53" stroke="#F4B183" stroke-width="3" stroke-miterlimit="8" fill="none" fill-rule="evenodd"/><path d="M767.5 132.334C767.5 120.275 777.275 110.5 789.334 110.5L879.666 110.5C891.725 110.5 901.5 120.275 901.5 132.334L901.5 219.666C901.5 231.725 891.725 241.5 879.666 241.5L789.334 241.5C777.275 241.5 767.5 231.725 767.5 219.666Z" stroke="#548235" stroke-width="3" stroke-miterlimit="8" fill="#C5E0B4" fill-rule="evenodd"/><text font-family="Calibri,Calibri_MSFontService,sans-serif" font-weight="400" font-size="19" transform="translate(783.193 182)">id_produit<tspan x="0" y="22">quantité</tspan></text><path d="M689.5 147.5 767.3 176.127" stroke="#F4B183" stroke-width="3" stroke-miterlimit="8" fill="none" fill-rule="evenodd"/><path d="M0 0 129.544 28.8256" stroke="#F4B183" stroke-width="3" stroke-miterlimit="8" fill="none" fill-rule="evenodd" transform="matrix(1 0 0 -1 901.5 176.326)"/><path d="M366.5 335.834C366.5 329.022 372.022 323.5 378.834 323.5L494.166 323.5C500.978 323.5 506.5 329.022 506.5 335.834L506.5 385.166C506.5 391.978 500.978 397.5 494.166 397.5L378.834 397.5C372.022 397.5 366.5 391.978 366.5 385.166Z" stroke="#F4B183" stroke-width="3" stroke-miterlimit="8" fill="#F8CBAD" fill-rule="evenodd"/><text font-family="Calibri,Calibri_MSFontService,sans-serif" font-weight="400" font-size="24" transform="translate(381.57 368)">ENGENDRE</text><path d="M0 0 24.0838 128.008" stroke="#F4B183" stroke-width="3" stroke-miterlimit="8" fill="none" fill-rule="evenodd" transform="matrix(1 0 0 -1 412.5 525.508)"/><path d="M0 0 176.886 93.2316" stroke="#F4B183" stroke-width="3" stroke-miterlimit="8" fill="none" fill-rule="evenodd" transform="matrix(1 0 0 -1 436.5 323.732)"/><path d="M652.5 435.834C652.5 429.022 658.022 423.5 664.834 423.5L793.167 423.5C799.978 423.5 805.5 429.022 805.5 435.834L805.5 485.167C805.5 491.978 799.978 497.5 793.167 497.5L664.834 497.5C658.022 497.5 652.5 491.978 652.5 485.167Z" stroke="#F4B183" stroke-width="3" stroke-miterlimit="8" fill="#F8CBAD" fill-rule="evenodd"/><text font-family="Calibri,Calibri_MSFontService,sans-serif" font-weight="400" font-size="24" transform="translate(669.876 467)">ENCLENCHE </text><path d="M949.708 565.281 728.5 497.5" stroke="#F4B183" stroke-width="3" stroke-miterlimit="8" fill="none" fill-rule="evenodd"/><path d="M728.836 423.49 613.5 230.5" stroke="#F4B183" stroke-width="3" stroke-miterlimit="8" fill="none" fill-rule="evenodd"/><rect x="949.5" y="456.5" width="170" height="217" stroke="#2F528F" stroke-width="3" stroke-miterlimit="8" fill="#DAE3F3"/><text font-family="Calibri,Calibri_MSFontService,sans-serif" font-style="italic" font-weight="400" font-size="19" transform="translate(959.1 526)">Num_livraison<tspan font-style="normal" x="0" y="23">Id_client </tspan><tspan fill="#FF0000" font-style="normal" x="69.8267" y="23">FK</tspan><tspan font-style="normal" x="0" y="45">Id_commande </tspan><tspan fill="#FF0000" font-style="normal" x="113.18" y="45">FK</tspan><tspan font-style="normal" x="0" y="67">Id_adresse</tspan><tspan fill="#FF0000" font-style="normal" x="86.4199" y="67">FK</tspan><tspan font-style="normal" x="0" y="90">Date_livraison</tspan><tspan font-style="normal" x="0" y="112">Fournisseur</tspan><tspan font-style="normal" font-size="21" x="28.8908" y="-42">LIVRAISON</tspan></text><path d="M950 497 1119.96 497" stroke="#2F528F" stroke-width="2" stroke-miterlimit="8" fill="none" fill-rule="evenodd"/><text font-family="Calibri,Calibri_MSFontService,sans-serif" font-weight="400" font-size="21" transform="translate(795.156 145)">CONTENU</text><path d="M767 156 901.141 156" stroke="#548235" stroke-width="2" stroke-miterlimit="8" fill="none" fill-rule="evenodd"/><path d="M97.5001 382.834C97.5001 370.499 107.499 360.5 119.834 360.5L209.166 360.5C221.501 360.5 231.5 370.499 231.5 382.834L231.5 542.166C231.5 554.501 221.501 564.5 209.166 564.5L119.834 564.5C107.499 564.5 97.5001 554.501 97.5001 542.166Z" stroke="#548235" stroke-width="3" stroke-miterlimit="8" fill="#C5E0B4" fill-rule="evenodd"/><text font-family="Calibri,Calibri_MSFontService,sans-serif" font-style="italic" font-weight="400" font-size="19" transform="translate(113.135 423)">id_adresse<tspan font-style="normal" x="0" y="23">id_client </tspan><tspan fill="#FF0000" font-style="normal" x="69.4933" y="23">FK</tspan><tspan font-style="normal" x="0" y="45">Rue</tspan><tspan font-style="normal" x="0" y="67">Ville </tspan><tspan font-style="normal" x="0" y="90">CP</tspan><tspan font-style="normal" x="0" y="112">Pays</tspan><tspan font-style="normal" x="0" y="135">N</tspan><tspan font-style="normal" x="12" y="135">°</tspan><tspan font-style="normal" font-size="21" x="18.4406" y="-32">ADRESSE</tspan></text><path d="M99 401 233.141 401" stroke="#548235" stroke-width="2" stroke-miterlimit="8" fill="none" fill-rule="evenodd"/><path d="M0 0 17.1065 118.866" stroke="#F4B183" stroke-width="3" stroke-miterlimit="8" fill="none" fill-rule="evenodd" transform="matrix(1 0 0 -1 164.5 360.366)"/><text font-family="Calibri,Calibri_MSFontService,sans-serif" font-weight="400" font-size="24" transform="translate(281.357 130)">1<tspan x="417.636" y="4">1</tspan><tspan x="-90.0775" y="177">1,N</tspan><tspan x="380.099" y="144">N</tspan><tspan x="215.603" y="5">N</tspan><tspan x="712.213" y="6">N</tspan><tspan x="224.115" y="129">1</tspan><tspan x="104.142" y="365">1</tspan><tspan x="626.43" y="402">N</tspan></text></g></svg>